<?xml version="1.0" standalone="no"?>
<!DOCTYPE svg PUBLIC "-//W3C//DTD SVG 20010904//EN"
 "http://www.w3.org/TR/2001/REC-SVG-20010904/DTD/svg10.dtd">
<svg version="1.0" xmlns="http://www.w3.org/2000/svg"
 width="512.000000pt" height="512.000000pt" viewBox="0 0 512.000000 512.000000"
 preserveAspectRatio="xMidYMid meet">
<metadata>
Created by potrace 1.11, written by Peter Selinger 2001-2013
</metadata>
<g transform="translate(0.000000,512.000000) scale(0.100000,-0.100000)"
fill="#000000" stroke="none">
<path d="M0 2560 l0 -2560 2560 0 2560 0 0 2560 0 2560 -2560 0 -2560 0 0
-2560z m2861 1076 c44 -72 84 -138 89 -146 22 -37 195 -319 215 -350 12 -19
48 -78 80 -130 32 -52 73 -119 92 -148 l34 -54 180 294 c99 161 185 300 190
308 5 8 56 92 113 185 l104 170 261 0 261 1 -2 -1125 -3 -1125 -230 -1 c-126
0 -234 3 -240 6 -7 5 -10 258 -9 728 0 397 -1 721 -3 721 -1 0 -145 -214 -319
-475 l-317 -475 -316 475 c-174 261 -318 475 -321 475 -3 0 -5 -324 -4 -720 0
-396 -2 -720 -5 -721 -21 -3 -449 -4 -458 -1 -10 3 -13 236 -13 1121 l0 1117
270 0 271 1 80 -131z m-911 -665 c-1 -817 -3 -851 -45 -991 -58 -195 -198
-352 -380 -428 -164 -69 -409 -86 -599 -42 -60 13 -191 66 -228 92 -14 10 -29
18 -33 18 -4 0 -20 10 -35 23 -16 12 -39 30 -52 40 -33 25 -138 129 -138 137
0 4 15 22 33 41 111 118 253 273 260 285 12 21 23 17 69 -27 153 -147 298
-202 443 -170 98 22 162 86 201 201 17 52 18 102 20 830 1 426 2 775 3 776 0
0 109 0 241 0 l240 0 0 -785z"/>
</g>
</svg>
